<?xml version="1.0" standalone="no"?>
<!DOCTYPE svg PUBLIC "-//W3C//DTD SVG 20010904//EN"
 "http://www.w3.org/TR/2001/REC-SVG-20010904/DTD/svg10.dtd">
<svg version="1.0" xmlns="http://www.w3.org/2000/svg"
 width="260.000000pt" height="260.000000pt" viewBox="0 0 260.000000 260.000000"
 preserveAspectRatio="xMidYMid meet">
<metadata>
Created by potrace 1.11, written by Peter Selinger 2001-2013
</metadata>
<g transform="translate(0.000000,260.000000) scale(0.100000,-0.100000)"
fill="#000000" stroke="none">
<path d="M1145 2220 c-270 -41 -472 -201 -520 -412 -44 -193 17 -371 164 -479
88 -65 200 -108 453 -175 349 -92 428 -142 428 -274 0 -62 -17 -97 -70 -142
-54 -47 -126 -69 -240 -75 -245 -13 -405 91 -427 277 l-6 50 -188 0 -189 0 0
-37 c1 -105 50 -247 118 -336 138 -181 443 -281 760 -249 147 15 215 33 320
83 192 93 302 267 302 479 -1 141 -32 220 -127 321 -98 104 -168 135 -485 218
-360 95 -416 118 -438 187 -31 93 11 185 106 234 43 22 60 25 164 25 84 0 129
-5 165 -18 96 -33 158 -106 172 -202 l6 -45 188 0 189 0 0 43 c0 60 -26 159
-56 220 -36 69 -153 184 -231 225 -132 69 -392 107 -558 82z"/>
</g>
</svg>
